<svg width="50" height="50" viewBox="0 0 50 50" fill="none" xmlns="http://www.w3.org/2000/svg">
<rect width="50" height="50" fill="#FFD900"/>
<path d="M16.435 12.14C22.285 12.14 26.665 13.475 29.575 16.145C32.485 18.785 33.94 22.64 33.94 27.71C33.94 30.98 33.22 33.845 31.78 36.305C30.37 38.735 28.315 40.625 25.615 41.975C22.945 43.325 19.75 44 16.03 44L13.24 43.955C11.5 43.895 10.24 43.865 9.46 43.865C6.37 43.865 4.06 43.91 2.53 44V43.1C3.52 43.04 4.24 42.92 4.69 42.74C5.17 42.56 5.485 42.215 5.635 41.705C5.815 41.195 5.905 40.37 5.905 39.23V16.91C5.905 15.77 5.815 14.945 5.635 14.435C5.485 13.925 5.17 13.58 4.69 13.4C4.24 13.22 3.52 13.1 2.53 13.04V12.14C3.79 12.23 5.605 12.275 7.975 12.275H9.37L11.17 12.23C13.63 12.17 15.385 12.14 16.435 12.14ZM16.39 12.95C15.46 12.95 14.755 13.055 14.275 13.265C13.825 13.475 13.51 13.85 13.33 14.39C13.15 14.93 13.06 15.74 13.06 16.82V39.32C13.06 40.4 13.15 41.21 13.33 41.75C13.51 42.29 13.825 42.665 14.275 42.875C14.755 43.085 15.475 43.19 16.435 43.19C20.065 43.19 22.645 41.93 24.175 39.41C25.705 36.86 26.47 33.02 26.47 27.89C26.47 22.76 25.675 18.995 24.085 16.595C22.525 14.165 19.96 12.95 16.39 12.95ZM42.4165 8.81C43.4365 8.81 44.3065 9.215 45.0265 10.025C45.7465 10.805 46.1065 11.87 46.1065 13.22C46.1065 14.24 46.0015 15.335 45.7915 16.505C45.6115 17.645 45.2815 19.4 44.8015 21.77C44.2015 24.5 43.7365 26.885 43.4065 28.925C43.0765 30.935 42.8815 33.02 42.8215 35.18H42.0115C41.9515 33.02 41.7565 30.935 41.4265 28.925C41.0965 26.885 40.6315 24.5 40.0315 21.77C39.5515 19.4 39.2065 17.645 38.9965 16.505C38.8165 15.335 38.7265 14.24 38.7265 13.22C38.7265 11.87 39.0715 10.805 39.7615 10.025C40.4515 9.215 41.3365 8.81 42.4165 8.81ZM42.4165 37.7C43.5865 37.7 44.5165 38.015 45.2065 38.645C45.8965 39.245 46.2415 40.085 46.2415 41.165C46.2415 42.245 45.8965 43.1 45.2065 43.73C44.5165 44.33 43.5865 44.63 42.4165 44.63C41.2465 44.63 40.3165 44.33 39.6265 43.73C38.9365 43.1 38.5915 42.245 38.5915 41.165C38.5915 40.085 38.9365 39.245 39.6265 38.645C40.3165 38.015 41.2465 37.7 42.4165 37.7Z" fill="black"/>
</svg>
